<svg xmlns="http://www.w3.org/2000/svg" width="32.755" height="37.466" viewBox="0 0 32.755 37.466">
  <g id="Group_1555" data-name="Group 1555" transform="translate(-46.859 -32.489)">
    <g id="Group_1036" data-name="Group 1036" transform="translate(46.859 41.412)">
      <g id="Group_1035" data-name="Group 1035" transform="translate(5.083)">
        <path id="Path_1852" data-name="Path 1852" d="M80.207,66.181l-.285-2.636-.211-1.962c-.544-3.239-4.411-4.492-7.525-5.607,2.174-.526,6.467-3.459,6.216-6.467l-.388-3.646a3.777,3.777,0,0,0-3.755-3.372H57.081a3.778,3.778,0,0,0-3.755,3.372l-.769,7.131a2.179,2.179,0,0,1,.715-.28,2.5,2.5,0,0,1,2.53,1.04,2.214,2.214,0,0,1-.111,2.541.2.2,0,0,0-.02.088,3.878,3.878,0,0,1,.728.417,5.272,5.272,0,0,1,4.4-1.829,4.819,4.819,0,0,1,4.356,3.95c.028.166.045.329.055.491,0,.025,0,.048,0,.073h3.479c1.849,0,3.348,1.939,3.348,4.332V65.1H63.128a13.444,13.444,0,0,1-.9,5.265H76.452A3.777,3.777,0,0,0,80.207,66.181ZM67.716,53.018H59.708l.347-4.2c.069-.838.56-1.467,1.143-1.467H71.632C71.632,50.483,69.879,53.018,67.716,53.018Z" transform="translate(-52.557 -42.492)" fill="#fff"/>
        <path id="Path_1853" data-name="Path 1853" d="M57.868,59.34" transform="translate(-53.131 -44.312)" fill="#fff"/>
      </g>
      <path id="Path_1854" data-name="Path 1854" d="M51.118,62a1.685,1.685,0,0,0,.834-.073c.057-.268-.081-2.194,1.869-2.025,1.226.107,1.729,1.481,2.31,2.635.453-.448,1.073-3.381,3.249-3.77A2.379,2.379,0,0,1,62.2,60.857c.113,1.229-.83,2.555-3.517,2.687a10.521,10.521,0,0,1-1.366-.026c-1.515-.126-2.9-.441-4.566-.583-.523-.045-1.109-.125-1.714-.145a4.109,4.109,0,0,0-3.25,1.1c-2.268,2.268-.045,6.791,3.291,6.071a4.106,4.106,0,0,0,1.156-.446c1.513-.848,2.784-3.214,2.551-4.077a1.966,1.966,0,0,0-1.078-.18,9.863,9.863,0,0,1-.854,2.005,3.166,3.166,0,0,1-2.033,1.48,2.111,2.111,0,0,1-.235.02,2.448,2.448,0,0,1-2.383-3.1c.343-1.18,1.352-1.562,2.7-1.592,2.141-.049,5.133.793,7.669.739.231-.005.459-.016.682-.037.075.135.17.311.27.507-.3.059-.6.128-.894.212a8.872,8.872,0,0,0-2.117.918,8.476,8.476,0,0,0-3.129,3.106c.456.931,1.971,1.708,3.472,2.223a11.24,11.24,0,0,0,3.132.673,2.583,2.583,0,0,0,.39-.673,12.316,12.316,0,0,0,1-5.265,4.012,4.012,0,0,0-.23-1.065h0l-.008-.018a2.538,2.538,0,0,0-.11-.244,4.923,4.923,0,0,0-.369-.662,4.508,4.508,0,0,0,.46-.186,3.528,3.528,0,0,0,2.341-3.436,3.582,3.582,0,0,0-3.348-3.37,4.716,4.716,0,0,0-4.234,2.445,2.79,2.79,0,0,0-1.7-1.276.617.617,0,0,1-.212-.4,1.578,1.578,0,0,1,.176-1.24c1.116-1.621-1.749-2.691-2.094-.9-.137.714.292.839.571,1.342a3.485,3.485,0,0,1,.134,1.233,2.588,2.588,0,0,0-1.192.69c-.051-.026-.1-.051-.143-.077h0c-1.222-.667-.929-1.217-1.456-1.7a1.194,1.194,0,1,0-.885,2.135c.565.076.434-.233.979.133a6.468,6.468,0,0,1,.818.6,2.912,2.912,0,0,0-.014,1.483c.082.015.173.029.268.04m8.057,8.971c-.021.011-1.293-.121-1.635-.52l2.171-1.2A2.765,2.765,0,0,1,59.175,70.967Zm.933-3.115a6.522,6.522,0,0,0-3.889,2.3,2.637,2.637,0,0,1-1.106-.7c.384-1.317,3.261-2.982,4.936-2.878v0a.381.381,0,0,0,.036.1A3,3,0,0,1,60.108,67.852Z" transform="translate(-46.859 -43.863)" fill="#fff"/>
    </g>
    <path id="Path_1855" data-name="Path 1855" d="M60.41,38.135v5.54a.832.832,0,0,0,.725.8h.271c.375-.062.711-.394.707-1.118-.007-1.214-.072-4.908.058-5.641a4.327,4.327,0,0,1,4.035-3.522c1.415,0,2.672-.022,3.79,1.105a4.236,4.236,0,0,1,1.363,2.417c.129.724.067,4.382.059,5.587,0,.653.153,1.171.9,1.171a.782.782,0,0,0,.8-.8v-5.54a6.092,6.092,0,0,0-1.094-3.112,5.81,5.81,0,0,0-2.31-1.948,6.294,6.294,0,0,0-2.3-.586h-1.3a6.289,6.289,0,0,0-2.3.586A5.847,5.847,0,0,0,61,35.9a5.626,5.626,0,0,0-.585,2.237Z" transform="translate(-1.464)" fill="#fff" fill-rule="evenodd"/>
  </g>
</svg>
