<svg id="Layer_1" data-name="Layer 1" xmlns="http://www.w3.org/2000/svg" viewBox="0 0 500 500"><defs><style>.cls-1{fill:#2f3363;}.cls-2{fill:#f47a43;}.cls-3{fill:#fc6632;}.cls-4{fill:#f46533;}.cls-5{fill:#f6f9f7;}.cls-6{fill:#5c3547;}</style></defs><title>Artboard 1gawija logo</title><rect class="cls-1" width="500" height="500"/><path class="cls-2" d="M354.35,234.1l-2.5,0c-1.71,1.3-1,3.18-1,4.8q-.06,22.74,0,45.49a5.63,5.63,0,0,1-1.26,4.21c-11.09,8.26-22.54,15.94-35.36,21.33a12.9,12.9,0,0,0-1.66,1l-18.23,6.52h0c-1.18.16-2.37.24-3.53.5-12.44,2.74-24.91,4.55-37.75,3.71a140,140,0,0,1-47.5-11.38c-2.55-1.12-4.88-2.82-7.73-3.26l-9.32-5.27L173,291.46h0c-.86-2.21-4.42-2.3-4.18-5.36a7.52,7.52,0,0,0,6.51-1c5.54-3.35,10.89-7,16.8-9.78,3.09-1.43,4.94-3.59,4.52-7.59-.49-4.73-.13-9.56-.09-14.34,0-1.13-.36-2.48,1.16-3.07,0,1.29,0,2.58,0,3.87,0,.07-.13.14-.13.21a3.74,3.74,0,0,0,.12.45,56.27,56.27,0,0,1,0,9.8v2a3.73,3.73,0,0,0,.05,3.88c.63,3.52,3.95,4.59,6.31,6,13.09,8.06,27.06,14,42.37,16.51A84.78,84.78,0,0,0,282.18,291a119.35,119.35,0,0,0,34.46-15.57c2.54-1.65,4.35-3.65,4.22-7.35-.32-9.76-.06-19.54-.06-29.31,0-4.81,0-4.76-4.7-4.75-10.86,0-21.71,0-32.57,0-.86,0-1.73-.15-2.59-.22v-29.6l-.08.09h5.75a26.81,26.81,0,0,0,3.2.37q33.22,0,66.44,0a29.28,29.28,0,0,0,3.2-.36l5.15,0c0,8.56-.05,17.12.16,25.68.08,3-.62,4.55-3.89,4a9.16,9.16,0,0,0-1.95.08A12.11,12.11,0,0,0,354.35,234.1Zm-31.26-28.79c-12.39,0-24.78,0-37.16,0-1.13,0-2.58-.38-3.13,1.08a2,2,0,0,0,1.25,2.91c.73.3.67.86,0,1.13-1.82.7-1.41,2.26-1.42,3.61,0,4.78.16,9.57-.1,14.33-.13,2.55.66,3.1,3,3.07,10.33-.11,20.65,0,31,0,4,0,5.19,1.12,5.22,5.22,0,5.87.18,11.74,0,17.6-.19,5.08.51,10.09.81,15.13a4.5,4.5,0,0,0,2.42,4.25c7,3.63,13.88,7.49,20.84,11.2,4.09,2.18,4.64,1.82,4.65-2.68q0-21.53,0-43c0-1.61.39-3.28-.39-4.82-.49-1-.17-1.28.79-1.57a19.37,19.37,0,0,1,8.22-1.22c3.34.4,4.48-.87,4.47-4.25,0-6-.18-11.91-.26-17.86-.06-3.89.38-4-3.62-4.06Q341.35,205.29,323.09,205.31Zm-33.14,85c.39,1.76,1.25,2.62,2.79,2.33a7.52,7.52,0,0,0,3.86-2c.18-.17.08-.85-.11-1.16a1,1,0,0,0-1.42-.3C293.59,290.19,291.83,290,290,290.29Z"/><path class="cls-2" d="M325.61,179.5c-4.6.25-4.67.17-4.66-4.5,0-9.76-.06-19.53,0-29.3a4.67,4.67,0,0,0-2.11-4.1c-10.5-7.89-22.3-13.13-34.79-16.91A85.46,85.46,0,0,0,246.39,122a97.66,97.66,0,0,0-21.19,6,106.81,106.81,0,0,0-25.32,13.61,6.63,6.63,0,0,0-2.17,2.33l-1.2,0c-.3-1.34-1.41-1.89-2.47-2.42-2-1-4.1-1.87-6.13-2.85-5-2.41-9.87-5-15-7-2.79-1.07-3.59-.07-3.73,2.42,0,.87,0,1.74,0,2.61q0,71.88,0,143.76c0,1.84-.2,3.68-.31,5.52a6.79,6.79,0,0,1-.54-3.5q0-72,0-144.06c0-4.92-1.23-10.24,3.48-14h0a54.87,54.87,0,0,0,11.61-7.88c16.15-10.24,33.4-17.72,52.29-21.28a123.78,123.78,0,0,1,45-.41c24.81,4.45,47.05,14.86,67,30.26A7.78,7.78,0,0,1,351,132c-.15,14.76-.05,29.53,0,44.3,0,1.71.06,3.45-2.33,3.42-7.37-.08-14.76.39-22.13-.27,6.51-.58,13-.13,19.54-.23,2.54,0,4.29-.83,4.29-3.66,0-14.57.06-29.13,0-43.7,0-2.86-1.23-3.46-3.68-2.18-7.06,3.7-14.09,7.45-21.35,10.74a4.53,4.53,0,0,0-2.32,3c-1.26,3.61-.85,7.39-1.15,11.07-.46,5.72-.14,11.51-.1,17.27,0,2.86-.95,6.26,3.51,6.9C325.43,178.65,325.5,179.2,325.61,179.5Z"/><path class="cls-3" d="M168.79,286c.11-1.84.31-3.68.31-5.52q0-71.88,0-143.76c0-.87,0-1.74,0-2.61.14-2.49.94-3.49,3.73-2.42,5.18,2,10.07,4.58,15,7,2,1,4.11,1.85,6.13,2.85,1.06.53,2.17,1.08,2.47,2.42v94.56c.38,1.75-1,3.89,1.19,5.23a24.84,24.84,0,0,1,0,6.56c-1.52.59-1.16,1.94-1.16,3.07,0,4.78-.4,9.61.09,14.34.42,4-1.43,6.16-4.52,7.59-5.91,2.75-11.26,6.43-16.8,9.78a7.52,7.52,0,0,1-6.51,1ZM170.62,275h.65V140.85h-.65Z"/><path class="cls-4" d="M269.57,351.41c5.29.22,5.49.24,4.88,5.15-1.87,15.15-3.93,30.28-5.85,45.42-.29,2.28-1.27,3.17-3.59,3-5.2-.29-10.41.33-15.61-.3-1.55-8.45-3.09-16.9-4-26.13-2.16,3.32-1.8,6.37-1.94,9.32v0c-1.32,4.48-1.77,9.12-2.38,13.71-.32,2.46-1.2,3.41-3.66,3.33-3.9-.13-7.81-.2-11.7,0-2.81.16-3.82-.95-4.12-3.62-.88-8.07-1.78-16.15-3-24.18-.86-5.77-.83-11.67-2.42-17.33-.65-8.3-.65-8.4,7.67-8.33,6.32.05,6.28-1.26,6.64,6.22.24,4.88.86,9.74,1.31,14.6a38.34,38.34,0,0,0,1.23,12,35,35,0,0,0,1.23-10.71c.88-6.61,1.8-13.22,2.62-19.84a2.23,2.23,0,0,1,2.57-2.24c3.79,0,7.58.09,11.37,0,1.75,0,2.22.79,2.33,2.34q.65,9.18,1.41,18.36c.11,1.36-.41,2.81.5,4.08.29,3.45-.09,7,1.13,10.35,1.23-9.6,2-19.21,3.27-28.77.91-7.06.43-5.79,6.56-6.14C267.19,351.64,268.38,351.51,269.57,351.41Z"/><path class="cls-4" d="M171.68,358.68c.29,3.23,1.53,6.31,1.35,9.63-.1,2-.63,3.05-2.83,2.91-4-.27-8,.33-12-.27-.15-2.81-.22-5.63-.49-8.43-.14-1.44-.13-3.21-2.43-3.11-2.07.09-2.15,1.73-2.17,3q-.18,15.8-.16,31.61c0,1.43.42,2.88,2.29,3s2.86-1.09,3-2.72c.25-2.7.23-5.42.29-8.13,0-.66-.11-1.47-.79-1.67-3.63-1-2.47-3.93-2.19-6.19.36-2.8,2.94-1.35,4.52-1.83l1.24-.35c2.93,0,5.85.09,8.77,0,2.06,0,2.92.85,2.91,2.92-.05,7.79-.07,15.58,0,23.37,0,1.89-.81,2.51-2.53,2.45-2.38-.1-4.76-.14-7.14-.21-.26-1-.09-2.35-1.23-2.72s-1.56.78-2.07,1.55l-2.69,1.93a4.79,4.79,0,0,0-2.62.64l-4.44-.05c-.91-.34-1.82-.68-2.72-1-5.21-2.08-8.67-5.61-9.19-11.41-.88-9.86-.56-19.74-.09-29.6.27-5.54,2.79-9.77,8.21-11.7C154.66,349.5,164.58,349.78,171.68,358.68Z"/><path class="cls-5" d="M343.87,351.56h6.19c4.65,0,4.69,0,5.41,4.42,2.46,15.22,4.83,30.45,7.39,45.65.47,2.78-.09,3.66-3,3.42a76.4,76.4,0,0,0-9.45,0c-1.86.07-2.86-.41-2.82-2.46,0-1.29-.31-2.59-.29-3.89,0-2.17-.5-3.27-3.1-3.29s-2.65,1.4-2.8,3.23c-.53,6.36-.56,6.36-6.95,6.37-2.07,0-4.14-.12-6.19,0-2.25.17-3-.4-2.63-2.87,2-13,3.7-26,5.69-39,.48-3.16,0-6.38,1.14-9.54.65-1.76,1.33-2.14,2.91-2.1C338.22,351.61,341.05,351.56,343.87,351.56Zm.82,15.24h-.82c-.7,5.77-1.37,11.54-2.12,17.31-.23,1.73.6,2.11,2,1.9,1.08-.16,2.88.77,2.65-1.59Q345.57,375.62,344.69,366.8Z"/><path class="cls-4" d="M179.5,386.65c1.65-10.91,3.34-21.82,4.9-32.74.26-1.78.91-2.41,2.67-2.4q8.46.09,16.92-.05c2,0,2.65,1,2.91,2.7,1.79,11.57,3.57,23.14,5.43,34.69.69,4.27,1.56,8.51,2.37,12.76.46,2.43-.2,3.62-3,3.43a83.9,83.9,0,0,0-9.11,0c-2.19.08-3.24-.71-3.18-3,0-1.08-.39-2.16-.33-3.23.14-2.35-.74-3.28-3.18-3.26-2.63,0-2.92,1.38-3,3.51-.18,5.88-.25,5.9-5.67,5.88-3.13,0-7.15,1-9.18-.5-2.34-1.76.73-5.69.14-8.73A26,26,0,0,0,179.5,386.65Zm14.25-3.4c-.74,1.69-.38,2.8,1.63,2.87,1.44.06,3.09.09,2.86-2.06-.63-5.71-.92-11.47-2.36-17.12-.92,5.24-2.15,10.41-2,15.75A.84.84,0,0,0,193.75,383.25Z"/><path class="cls-3" d="M325.61,179.5c-.11-.3-.18-.85-.33-.88-4.46-.64-3.5-4-3.51-6.9,0-5.76-.36-11.55.1-17.27.3-3.68-.11-7.46,1.15-11.07a4.53,4.53,0,0,1,2.32-3c7.26-3.29,14.29-7,21.35-10.74,2.45-1.28,3.67-.68,3.68,2.18.08,14.57,0,29.13,0,43.7,0,2.83-1.75,3.62-4.29,3.66-6.51.1-13-.35-19.54.23C326.27,179.75,326,179.9,325.61,179.5Z"/><path class="cls-5" d="M320.82,375.53c0,6.85.09,13.69,0,20.54-.09,5.34-2.49,8.1-7.78,8.65-3.76.39-7.59.21-11.39.27-.65,0-1.44,0-1.46-.9-.05-2.5-.06-5,0-7.49,0-.86.84-.84,1.49-.81,3.27.14,4-1.83,4-4.6,0-11.85.12-23.7-.06-35.54,0-3.22.68-4.53,4.1-4.14a49.91,49.91,0,0,0,8.47,0c2.23-.15,2.76.73,2.73,2.81-.11,7.06,0,14.12,0,21.19Z"/><path class="cls-2" d="M142.92,230.36q-.1,18.19-.23,36.39c.07.81.13,1.62.19,2.43a.56.56,0,0,0-.06.47c-2.35,1.47-4.93.54-7.41.67l-.18.14.17-.15q0-21.83,0-43.64,0-40.21-.09-80.43l1.25-.84a16.54,16.54,0,0,0,5.16,0l1.14,1.12a35.23,35.23,0,0,0-.34,3.55q-.08,37.09-.08,74.19C142.41,226.29,142.16,228.38,142.92,230.36Zm-1.49-37.66c-7.5,10.33-6.15,20.25,0,30.39Z"/><path class="cls-2" d="M152.85,278.75c-2.11,1.33-4.25.95-6.41.12q0-40.87,0-81.75c0-19.43-.14-38.86-.21-58.28,2.25-2,4.75-1.11,7.21-.63q-.1,12.4-.22,24.81a26.6,26.6,0,0,0-.38,3.2q0,37.46,0,74.91a6.22,6.22,0,0,0,.42,3.19c.06,10.75.13,21.49.15,32.24A9.17,9.17,0,0,1,152.85,278.75Zm-3.31-107.36a19,19,0,0,0-2.64,10.21q.15,24.41,0,48.8c0,4.1.29,8,2.64,11.44a6.37,6.37,0,0,0,2.32,4.82v-79.8C150.52,168.22,150.7,170.1,149.54,171.39Z"/><path class="cls-4" d="M272.07,218.69c0,7.05-.1,14.1.05,21.14.05,2.54-.64,3.46-3.3,3.36-6-.24-5.93-.12-5.93-6,0-13.23.05-26.45-.11-39.68,0-3,1-4.21,3.93-3.83a5.93,5.93,0,0,0,1.63,0c2.76-.41,3.89.56,3.81,3.54-.18,7.15-.06,14.31-.06,21.46Z"/><path class="cls-2" d="M163.92,275.63c.1,2.49.08,5,.32,7.47.26,2.69-1,3.33-3.42,3.28-2.3-.05-3.54-.38-3.51-3.19.16-12.93.11-25.85.1-38.78q0-55.87-.06-111.77c0-.54-.08-1.08-.12-1.62,1.87-1.42,4.11-.15,6.09-.81l.28,0,.28-.08.23.1q-.11,4.28-.2,8.55a15.11,15.11,0,0,0-5.17,11q-.17,56.79-.06,113.58a4.8,4.8,0,0,0,.57,3.13C161.35,269.32,162.2,272.7,163.92,275.63Z"/><path class="cls-2" d="M196.51,238.55V145.28h1.16v1.34a1.38,1.38,0,0,0,0,1.92v1.31a.85.85,0,0,0,0,1.3,53.53,53.53,0,0,1,0,9.13c0,.07-.13.14-.12.2a2.28,2.28,0,0,0,.11.45c.06,5.84.17,11.69.17,17.53q0,27.76-.16,55.53c0,.07-.13.15-.12.21a3.33,3.33,0,0,0,.13.45c0,1.29,0,2.58,0,3.87Z"/><path class="cls-2" d="M280.05,354.07c0-.83.05-1.66.07-2.49l0,0a28.32,28.32,0,0,0,6.44-.18l7.64.17c0,1.71.06,3.41.08,5.11a2,2,0,0,1-1.27-2c-.07-.93-.39-1.85-1.43-1.81C287.73,353,283.68,351.7,280.05,354.07Z"/><path class="cls-4" d="M196.51,238.55l1.2,0a16,16,0,0,1,0,5.25C195.54,242.44,196.89,240.3,196.51,238.55Z"/><path class="cls-4" d="M197.71,270.54a3.73,3.73,0,0,1-.05-3.88A8.76,8.76,0,0,1,197.71,270.54Z"/><path class="cls-6" d="M245.75,406.44l-.34.54a2.91,2.91,0,0,1-.48-.7c-.05-.11.15-.32.24-.48Z"/><path class="cls-4" d="M197.67,145.29h-1.16V144l1.2,0C197.7,144.41,197.68,144.85,197.67,145.29Z"/><path class="cls-4" d="M197.69,148.55a1.38,1.38,0,0,1,0-1.92C197.68,147.27,197.68,147.91,197.69,148.55Z"/><path class="cls-4" d="M197.69,151.16a.85.85,0,0,1,0-1.3Z"/><path class="cls-4" d="M197.7,234.66a3.33,3.33,0,0,1-.13-.45c0-.06.08-.14.12-.21Z"/><path class="cls-4" d="M197.68,160.94a2.28,2.28,0,0,1-.11-.45c0-.06.08-.13.12-.2Z"/><path class="cls-6" d="M163.88,130.18l-.28.08-.28,0C163.49,129.94,163.68,129.93,163.88,130.18Z"/><path class="cls-4" d="M197.69,254.87a3.74,3.74,0,0,1-.12-.45c0-.07.09-.14.13-.21Z"/><path class="cls-4" d="M197.66,265.28v-.61A.56.56,0,0,1,197.66,265.28Z"/><path class="cls-3" d="M323.09,205.31q18.26,0,36.51,0c4,0,3.56.17,3.62,4.06.08,6,.23,11.9.26,17.86,0,3.38-1.13,4.65-4.47,4.25a19.37,19.37,0,0,0-8.22,1.22c-1,.29-1.28.61-.79,1.57.78,1.54.39,3.21.39,4.82q.06,21.51,0,43c0,4.5-.56,4.86-4.65,2.68-7-3.71-13.84-7.57-20.84-11.2a4.5,4.5,0,0,1-2.42-4.25c-.3-5-1-10.05-.81-15.13.22-5.86.08-11.73,0-17.6,0-4.1-1.19-5.22-5.22-5.22-10.32,0-20.64-.07-31,0-2.38,0-3.17-.52-3-3.07.26-4.76.06-9.55.1-14.33,0-1.35-.4-2.91,1.42-3.61.69-.27.75-.83,0-1.13a2,2,0,0,1-1.25-2.91c.55-1.46,2-1.07,3.13-1.08C298.31,205.29,310.7,205.31,323.09,205.31ZM287,211.06c1,1.08,2.05.74,3,.74q33.75,0,67.5,0a14.08,14.08,0,0,0,1.95-.1c.71-.09,1.32-.48,1.19-1.26-.17-1.08-.88-.6-1.46-.34-1.34.63-2.78.39-4.18.39q-32,0-63.91,0C289.82,210.54,288.49,210.21,287,211.06Z"/><path class="cls-4" d="M286.61,204.27c5.42-.06,10.84-.16,16.25-.17q26.36,0,52.7,0c1.3,0,2.59.12,3.89.18a29.28,29.28,0,0,1-3.2.36q-33.22,0-66.44,0A26.81,26.81,0,0,1,286.61,204.27Z"/><path class="cls-3" d="M290,290.29c1.88-.26,3.64-.1,5.12-1.17a1,1,0,0,1,1.42.3c.19.31.29,1,.11,1.16a7.52,7.52,0,0,1-3.86,2C291.2,292.91,290.34,292.05,290,290.29Z"/><ellipse class="cls-4" cx="170.94" cy="207.91" rx="0.46" ry="94.84"/><path class="cls-3" d="M141.43,192.7v30.39C135.28,213,133.93,203,141.43,192.7Z"/><path class="cls-3" d="M149.54,171.39c1.16-1.29,1-3.17,2.31-4.53v79.8a6.37,6.37,0,0,1-2.32-4.82Q149.54,206.62,149.54,171.39Z"/><path class="cls-4" d="M149.54,171.39q0,35.24,0,70.45c-2.35-3.47-2.67-7.34-2.64-11.44q.2-24.4,0-48.8A19,19,0,0,1,149.54,171.39Z"/><path class="cls-4" d="M153.19,163c.06,9.1.17,18.21.17,27.31q0,27-.14,54a6.22,6.22,0,0,1-.42-3.19q0-37.45,0-74.91A26.6,26.6,0,0,1,153.19,163Z"/><path class="cls-3" d="M163.92,275.63c-1.72-2.93-2.57-6.31-4.67-9.05a4.8,4.8,0,0,1-.57-3.13q0-56.79.06-113.58a15.11,15.11,0,0,1,5.17-11c.05.76.15,1.52.15,2.27q0,65.81,0,131.61C164,273.68,164,274.66,163.92,275.63Z"/><path class="cls-3" d="M280.05,354.07c3.63-2.37,7.68-1.1,11.55-1.24,1,0,1.36.88,1.43,1.81a2,2,0,0,0,1.27,2c.05,2.89.12,5.77.13,8.65,0,10.86.14,21.71,0,32.56-.13,7.18-1.6,6.73-6.86,6.8l-7.43.11q-.11-22.61-.2-45.19C279.9,357.75,280,355.91,280.05,354.07Zm8.59,46.32c.75-1.33.47-2.54.47-3.71,0-10.84,0-21.69,0-32.53,0-2.13-.5-4.43,2.24-5.81-3.22-1-3.56.65-3.56,2.8,0,12.25,0,24.5,0,36.76C287.84,398.68,287.5,399.63,288.64,400.39Z"/><path class="cls-4" d="M287,211.06c1.46-.85,2.79-.52,4.06-.53q31.95,0,63.91,0c1.4,0,2.84.24,4.18-.39.58-.26,1.29-.74,1.46.34.13.78-.48,1.17-1.19,1.26a14.08,14.08,0,0,1-1.95.1q-33.75,0-67.5,0C289.08,211.8,288.05,212.14,287,211.06Z"/><path class="cls-4" d="M288.64,400.39c-1.14-.76-.8-1.71-.8-2.49,0-12.26,0-24.51,0-36.76,0-2.15.34-3.76,3.56-2.8-2.74,1.38-2.24,3.68-2.24,5.81,0,10.84,0,21.69,0,32.53C289.11,397.85,289.39,399.06,288.64,400.39Z"/></svg>