<?xml version="1.0" encoding="UTF-8"?>
<!DOCTYPE svg PUBLIC "-//W3C//DTD SVG 1.1//EN" "http://www.w3.org/Graphics/SVG/1.1/DTD/svg11.dtd">
<!-- Creator: CorelDRAW X7 -->
<svg xmlns="http://www.w3.org/2000/svg" xml:space="preserve" width="1.4396in" height="1.64667in" version="1.1" style="shape-rendering:geometricPrecision; text-rendering:geometricPrecision; image-rendering:optimizeQuality; fill-rule:evenodd; clip-rule:evenodd"
viewBox="0 0 170 195"
 xmlns:xlink="http://www.w3.org/1999/xlink">
 <defs>
  <style type="text/css">
   <![CDATA[
    .fil3 {fill:#4D7162}
    .fil1 {fill:#FEFEFE;fill-rule:nonzero}
    .fil2 {fill:#4D7162;fill-rule:nonzero}
    .fil0 {fill:#EFA82D;fill-rule:nonzero}
   ]]>
  </style>
 </defs>
 <g id="Layer_x0020_1">
  <metadata id="CorelCorpID_0Corel-Layer"/>
  <path class="fil0" d="M105 101l-41 0 1 -22c1,-4 3,-7 6,-7l55 0c0,16 -9,29 -21,29zm65 69l-1 -14 -1 -10c-3,-17 -23,-24 -39,-29 11,-3 33,-18 32,-34l-2 -19c-1,-10 -10,-18 -20,-18l-89 0c-10,0 -18,8 -20,18l-4 37c1,-1 2,-1 3,-1 2,-1 5,-1 7,0 9,2 12,11 7,18 0,0 0,0 0,1 1,0 2,1 3,2 1,-1 2,-2 4,-3 5,-5 12,-7 19,-7 12,1 21,10 23,21 0,1 0,2 0,2l0 1 18 0c10,0 18,10 18,22l0 7 -46 0c0,8 -2,19 -5,27l74 0c11,0 20,-10 19,-21z"/>
  <path class="fil1" d="M64 155c-1,0 -2,0 -3,0l0 1c0,1 0,2 0,3 2,-1 3,-1 5,-1 -1,-1 -1,-2 -2,-3z"/>
  <path class="fil2" d="M41 159c-2,-1 -4,-1 -5,-1 -2,3 -2,6 -5,10 -2,3 -6,7 -10,8 -1,0 -1,0 -2,0 -8,0 -14,-8 -12,-16 2,-6 7,-8 14,-9 11,0 27,5 40,4 1,0 2,0 3,0 1,1 1,2 2,3 -2,0 -3,0 -5,1 -3,1 -7,2 -11,5 -6,3 -13,10 -16,16 2,5 10,9 18,11 7,3 13,4 16,4 1,-1 2,-2 2,-4 3,-6 6,-18 5,-27 0,-2 0,-4 -1,-6l0 0 0 0c0,0 0,-1 0,-1 -1,-1 -2,-2 -2,-3 1,-1 1,-1 2,-1 9,-4 13,-11 12,-18 0,-1 0,-1 0,-2 -2,-10 -10,-15 -17,-16 -14,-1 -20,10 -22,13 -1,-2 -4,-5 -9,-7 -1,0 -1,-1 -1,-2 -1,-2 0,-4 1,-6 6,-9 -9,-14 -11,-5 -1,4 1,5 3,7 1,2 1,5 1,7 -2,0 -5,1 -7,3 0,0 0,0 0,0 -7,-4 -5,-7 -8,-9 -2,-2 -8,-1 -9,2 -2,4 1,8 4,9 3,0 3,-1 6,1 1,0 3,2 4,3 -1,2 -1,4 0,8 0,0 1,0 1,0 2,0 3,0 4,-1 1,-1 0,-11 10,-10 7,0 9,8 12,14 3,-3 6,-18 17,-20 8,-2 14,4 15,11 0,6 -5,13 -19,14 -2,0 -4,0 -7,0 -8,-1 -15,-3 -23,-3 -3,-1 -6,-1 -9,-1 -6,0 -12,1 -17,6 -12,11 0,35 17,31 2,0 4,-1 6,-2 8,-5 14,-17 13,-21zm8 24c-2,-1 -5,-2 -6,-4 2,-6 17,-15 26,-14l0 0c0,0 0,0 0,0 0,2 0,5 0,6 -9,2 -15,6 -20,12zm18 -5c1,3 -2,9 -3,9 0,0 -7,0 -8,-2l11 -7z"/>
  <path class="fil3" d="M63 29l0 29c0,2 2,4 4,4l1 0c2,0 4,-2 4,-5 0,-7 -1,-26 0,-30 2,-10 11,-18 21,-18 7,0 14,0 20,6 3,3 6,7 7,12 0,4 0,23 0,29 0,4 1,6 5,6 2,0 4,-1 4,-4l0 -29c0,-5 -3,-12 -6,-16 -3,-5 -6,-7 -12,-10 -3,-2 -7,-3 -12,-3l-6 0c-5,0 -9,1 -12,3 -7,4 -12,8 -15,15 -1,2 -3,7 -3,11l0 0z"/>
 </g>
</svg>
