<svg xmlns="http://www.w3.org/2000/svg" width="500" height="500" viewBox="0 0 500 500"><g transform="translate(-2612 -3275)"><rect width="500" height="500" transform="translate(2612 3275)" fill="none"/><path d="M1706.854,209.053a8.607,8.607,0,0,0-.892-1.424c-.209-.342-.361-.646-.589-.95a9.126,9.126,0,0,0-3.95-3.057l-.132-.095-151.727-56.874a9.243,9.243,0,0,0-7.046.133L1409.763,203.66c-.132.057-.188.209-.321.266a9.178,9.178,0,0,0-3.323,2.791,10.077,10.077,0,0,0-.722,1.025,7.489,7.489,0,0,0-.626.911,9.509,9.509,0,0,0-.76,3.722v170.7a9.507,9.507,0,0,0,5.752,8.735L1542.52,448.7h.02a9.449,9.449,0,0,0,7.045.152l.342-.133h.019l151.365-56.76a9.493,9.493,0,0,0,6.153-8.887V212.4c0-.171-.133-.285-.133-.437A9.7,9.7,0,0,0,1706.854,209.053Zm-160.367-43.315L1670.964,212.4l-29.68,11.128-53.208-23.832a9.336,9.336,0,0,0-8.337.323l-37.182,15.8a9.5,9.5,0,0,0,.1,17.527l34.5,14.242-30.671,11.488-108.9-46.676Zm56.7,72.065-32.434-13.369,13.425-5.716,31.865,14.261Zm9.438,16.711,18.97-7.1v46.2l-18.97,7.121ZM1422.98,226.789l113.785,48.765V425.59L1422.98,376.825Zm132.756,199.5V275.858l37.921-14.223v52.791a9.449,9.449,0,0,0,9.5,9.475,9.713,9.713,0,0,0,3.343-.608l37.923-14.223a9.486,9.486,0,0,0,6.152-8.868V240.291l37.921-14.223V376.5Z" transform="translate(1306.989 3226.979)" fill="#426a5a"/></g></svg>