<svg xmlns="http://www.w3.org/2000/svg" width="15" height="15" viewBox="0 0 500 500">
    <g transform="translate(-2609 -2089)">
        <rect width="500" height="500" transform="translate(2609 2089)" fill="none" />
        <path
            d="M1712.914,280.714a9.14,9.14,0,0,0-7.329-6.19L1609.5,260.566,1566.524,173.5a9.077,9.077,0,0,0-16.29,0l-42.976,87.067-96.086,13.957a9.086,9.086,0,0,0-5.032,15.5l69.521,67.773L1459.255,453.5a9.074,9.074,0,0,0,13.178,9.571l85.947-45.176,85.946,45.176a8.935,8.935,0,0,0,4.216,1.044,9.066,9.066,0,0,0,8.942-10.615l-16.407-95.707,69.541-67.773A9.1,9.1,0,0,0,1712.914,280.714Zm-87.939,67.413a9.092,9.092,0,0,0-2.6,8.032l14.109,82.281L1562.6,399.588a9.109,9.109,0,0,0-8.452,0l-73.868,38.852,14.091-82.281a9.037,9.037,0,0,0-2.6-8.032l-59.778-58.26,82.6-12.021a9.013,9.013,0,0,0,6.835-4.956l36.955-74.856,36.934,74.856a9.05,9.05,0,0,0,6.836,4.956l82.605,12.021Z"
            transform="translate(1300.6 2022.571)" fill="#fff" />
    </g>
</svg>